<?xml version="1.0" encoding="utf-8"?>
<!-- Generator: Adobe Illustrator 27.2.0, SVG Export Plug-In . SVG Version: 6.00 Build 0)  -->
<svg version="1.1" id="Layer_1" xmlns="http://www.w3.org/2000/svg" xmlns:xlink="http://www.w3.org/1999/xlink" x="0px" y="0px"
	 viewBox="0 0 500 175" style="enable-background:new 0 0 500 175;" xml:space="preserve">
<style type="text/css">
	.st0{fill:#FFFFFF;}
	.st1{fill-rule:evenodd;clip-rule:evenodd;fill:#FFFFFF;stroke:#4C7EF3;stroke-width:1.9481;}
	.st2{fill-rule:evenodd;clip-rule:evenodd;fill:#FFFFFF;stroke:#FA4359;stroke-width:1.9481;}
	.st3{fill-rule:evenodd;clip-rule:evenodd;fill:#FFFFFF;stroke:#000000;stroke-width:1.9481;}
</style>
<rect class="st0" width="500" height="175"/>
<g transform="translate(40.25974 22.077922)">
	<g>
		<path d="M31.9,105c0.5,0.1,0.9,0.4,1.2,0.8c0.3,0.4,0.4,0.9,0.4,1.4c0,0.8-0.3,1.4-0.8,1.9c-0.5,0.4-1.3,0.6-2.2,0.6h-3.8v-9.2
			h3.7c0.9,0,1.7,0.2,2.2,0.6s0.8,1,0.8,1.8c0,0.5-0.1,0.9-0.4,1.3S32.4,104.9,31.9,105z M27.8,104.6h2.5c0.7,0,1.2-0.1,1.6-0.4
			c0.4-0.3,0.5-0.7,0.5-1.2c0-1-0.7-1.6-2.1-1.6h-2.5V104.6z M30.4,108.9c0.7,0,1.2-0.1,1.6-0.4s0.5-0.7,0.5-1.2
			c0-1.1-0.7-1.7-2.1-1.7h-2.7v3.3L30.4,108.9z M37.9,103.3c0.8,0,1.4,0.2,1.8,0.6c0.4,0.4,0.6,1,0.6,1.9v4h-1v-1.1
			c-0.2,0.4-0.4,0.7-0.8,0.9s-0.7,0.3-1.2,0.3c-0.4,0-0.8-0.1-1.1-0.2c-0.3-0.2-0.6-0.4-0.8-0.7s-0.3-0.6-0.3-1
			c0-0.5,0.1-0.8,0.4-1.1s0.6-0.5,1.2-0.6c0.5-0.1,1.2-0.2,2.1-0.2l0.5,0v-0.4c0-0.5-0.1-0.9-0.3-1.1s-0.6-0.4-1.1-0.4
			c-0.7,0-1.5,0.2-2.2,0.7l-0.4-0.8c0.3-0.2,0.7-0.4,1.2-0.6S37.5,103.3,37.9,103.3z M37.5,109c0.5,0,0.9-0.2,1.3-0.5
			s0.5-0.8,0.5-1.4v-0.4H39c-0.8,0-1.3,0-1.7,0.1c-0.4,0.1-0.7,0.2-0.9,0.3s-0.3,0.4-0.3,0.7c0,0.3,0.1,0.6,0.4,0.8
			S37.1,109,37.5,109z M44.9,109.8c-0.6,0-1.2-0.1-1.6-0.4c-0.5-0.3-0.8-0.6-1.1-1.1s-0.4-1.1-0.4-1.7s0.1-1.2,0.4-1.7
			s0.6-0.9,1.1-1.2s1-0.4,1.6-0.4c0.4,0,0.8,0.1,1.2,0.2c0.4,0.2,0.7,0.4,1,0.6l-0.4,0.8c-0.6-0.5-1.2-0.7-1.8-0.7
			c-0.6,0-1.2,0.2-1.5,0.6c-0.4,0.4-0.5,1-0.5,1.8c0,0.8,0.2,1.4,0.5,1.8c0.4,0.4,0.9,0.6,1.5,0.6c0.6,0,1.2-0.2,1.8-0.7l0.4,0.8
			c-0.3,0.3-0.6,0.5-1,0.6C45.7,109.8,45.3,109.8,44.9,109.8L44.9,109.8z M54.1,109.7h-1.4l-3.2-3v3h-1.1v-9.2h1.1v5.7l2.9-2.9h1.3
			l-3.1,3L54.1,109.7z M58.4,100.6H62c1,0,1.7,0.2,2.2,0.7s0.8,1.1,0.8,2s-0.3,1.5-0.8,2S63,106,62,106h-2.6v3.8h-1.1L58.4,100.6z
			 M61.9,105.1c1.4,0,2.1-0.6,2.1-1.8c0-1.2-0.7-1.8-2.1-1.8h-2.5v3.6L61.9,105.1z M69.2,103.3c0.8,0,1.4,0.2,1.8,0.6
			c0.4,0.4,0.6,1,0.6,1.9v4h-1v-1.1c-0.2,0.4-0.4,0.7-0.8,0.9c-0.3,0.2-0.7,0.3-1.2,0.3c-0.4,0-0.8-0.1-1.1-0.2
			c-0.3-0.2-0.6-0.4-0.8-0.7s-0.3-0.6-0.3-1c0-0.5,0.1-0.8,0.4-1.1c0.2-0.3,0.6-0.5,1.2-0.6c0.5-0.1,1.2-0.2,2.1-0.2l0.5,0v-0.4
			c0-0.5-0.1-0.9-0.3-1.1s-0.6-0.4-1.1-0.4c-0.7,0-1.5,0.2-2.2,0.7l-0.4-0.8c0.3-0.2,0.7-0.4,1.2-0.6S68.8,103.3,69.2,103.3z
			 M68.8,109c0.5,0,0.9-0.2,1.3-0.5s0.5-0.8,0.5-1.4v-0.4h-0.2c-0.8,0-1.3,0-1.7,0.1s-0.7,0.2-0.9,0.3s-0.3,0.4-0.3,0.7
			c0,0.3,0.1,0.6,0.4,0.8S68.4,109,68.8,109z M79.2,103.4v5.9c0,0.9-0.2,1.7-0.7,2.1s-1.2,0.7-2.2,0.7c-1.1,0-2-0.3-2.8-0.9l0.4-0.8
			c0.4,0.3,0.8,0.5,1.2,0.6c0.4,0.1,0.8,0.2,1.2,0.2c0.6,0,1.1-0.2,1.4-0.5s0.5-0.8,0.5-1.4v-1.1c-0.2,0.4-0.5,0.7-0.8,0.9
			s-0.8,0.3-1.3,0.3c-0.6,0-1-0.1-1.5-0.4s-0.8-0.6-1-1.1s-0.4-1-0.4-1.6s0.1-1.2,0.4-1.6s0.6-0.8,1-1.1s0.9-0.4,1.5-0.4
			c0.5,0,0.9,0.1,1.3,0.3s0.7,0.5,0.8,0.9v-1.1H79.2z M76.2,108.7c0.6,0,1.1-0.2,1.4-0.6s0.5-1,0.5-1.7c0-0.7-0.2-1.3-0.5-1.7
			c-0.3-0.4-0.8-0.6-1.4-0.6s-1.1,0.2-1.4,0.6c-0.4,0.4-0.5,1-0.5,1.7c0,0.7,0.2,1.3,0.5,1.7C75.1,108.5,75.6,108.7,76.2,108.7z
			 M86.4,106.7h-4.6c0,0.7,0.2,1.3,0.6,1.7s0.9,0.6,1.5,0.6c0.7,0,1.4-0.3,2-0.8l0.4,0.8c-0.3,0.3-0.6,0.5-1.1,0.6s-0.9,0.2-1.3,0.2
			c-1,0-1.8-0.3-2.3-0.9s-0.9-1.4-0.9-2.4c0-0.6,0.1-1.2,0.4-1.7s0.6-0.9,1.1-1.2s1-0.4,1.6-0.4c0.8,0,1.5,0.3,2,0.8
			s0.7,1.3,0.7,2.3L86.4,106.7z M83.8,104.1c-0.6,0-1,0.2-1.3,0.5s-0.5,0.8-0.6,1.5h3.7c0-0.6-0.2-1.1-0.5-1.5
			S84.3,104.1,83.8,104.1z M90.1,109.8c-1.1,0-1.9-0.3-2.5-0.8l0.4-0.8c0.3,0.3,0.7,0.5,1,0.6s0.7,0.2,1.2,0.2
			c0.5,0,0.8-0.1,1.1-0.2c0.2-0.2,0.4-0.4,0.4-0.7c0-0.3-0.1-0.5-0.2-0.6c-0.2-0.1-0.4-0.3-0.8-0.4l-1.1-0.2
			c-0.5-0.1-0.9-0.3-1.2-0.6s-0.4-0.7-0.4-1.1c0-0.6,0.2-1,0.7-1.4s1-0.5,1.8-0.5c0.4,0,0.9,0.1,1.3,0.2s0.7,0.3,1,0.6l-0.4,0.8
			c-0.6-0.5-1.2-0.7-1.9-0.7c-0.4,0-0.8,0.1-1,0.3s-0.4,0.4-0.4,0.7c0,0.3,0.1,0.5,0.2,0.6s0.4,0.3,0.7,0.3l1.1,0.3
			c0.6,0.1,1,0.3,1.3,0.6c0.3,0.3,0.4,0.6,0.4,1.1c0,0.6-0.2,1-0.7,1.3C91.5,109.7,90.9,109.8,90.1,109.8L90.1,109.8z M47.4,127.4
			c-1.4,0-2.6-0.4-3.4-1.2l0.4-0.8c0.5,0.4,0.9,0.7,1.4,0.8s1,0.2,1.6,0.2c0.7,0,1.3-0.1,1.7-0.4c0.4-0.3,0.6-0.7,0.6-1.2
			c0-0.3-0.1-0.5-0.3-0.7s-0.4-0.3-0.8-0.5c-0.3-0.1-0.6-0.2-1.1-0.3l-0.2,0c-0.7-0.2-1.3-0.3-1.7-0.5s-0.8-0.4-1.1-0.8
			s-0.4-0.8-0.4-1.3c0-0.5,0.1-1,0.4-1.4s0.7-0.7,1.2-0.9s1.1-0.3,1.8-0.3c0.6,0,1.2,0.1,1.8,0.3s1,0.5,1.4,0.9l-0.4,0.8
			c-0.4-0.4-0.9-0.6-1.3-0.8c-0.4-0.2-0.9-0.3-1.4-0.3c-0.7,0-1.3,0.1-1.7,0.4s-0.6,0.7-0.6,1.3c0,0.5,0.2,0.8,0.5,1
			c0.3,0.2,0.8,0.4,1.4,0.5l0.2,0.1c0.8,0.2,1.4,0.4,1.9,0.5s0.8,0.4,1.1,0.7s0.4,0.7,0.4,1.3c0,0.5-0.1,1-0.4,1.4s-0.7,0.7-1.2,0.9
			C48.7,127.3,48.1,127.4,47.4,127.4L47.4,127.4z M55.2,126.5c0.2,0,0.4,0,0.6,0l-0.1,0.8c-0.2,0-0.4,0.1-0.6,0.1
			c-0.8,0-1.3-0.2-1.7-0.6s-0.6-1-0.6-1.7v-3.3h-1.2v-0.8h1.2V119h1.1v1.9h1.8v0.8h-1.8v3.2C53.8,126,54.3,126.5,55.2,126.5z
			 M59.4,120.8c0.8,0,1.4,0.2,1.8,0.6c0.4,0.4,0.6,1,0.6,1.9v4h-1v-1.1c-0.2,0.4-0.4,0.7-0.8,0.9c-0.3,0.2-0.7,0.3-1.2,0.3
			c-0.4,0-0.8-0.1-1.1-0.2c-0.3-0.2-0.6-0.4-0.8-0.7s-0.3-0.6-0.3-1c0-0.5,0.1-0.8,0.4-1.1s0.6-0.5,1.2-0.6c0.5-0.1,1.2-0.2,2.1-0.2
			l0.5,0v-0.4c0-0.5-0.1-0.9-0.3-1.1c-0.2-0.2-0.6-0.4-1.1-0.4c-0.7,0-1.5,0.2-2.2,0.7l-0.4-0.8c0.3-0.2,0.7-0.4,1.2-0.6
			C58.5,120.9,58.9,120.8,59.4,120.8z M59,126.5c0.5,0,0.9-0.2,1.3-0.5c0.3-0.4,0.5-0.8,0.5-1.4v-0.4h-0.2c-0.8,0-1.3,0-1.7,0.1
			c-0.4,0.1-0.7,0.2-0.9,0.3s-0.3,0.4-0.3,0.7c0,0.3,0.1,0.6,0.4,0.8S58.6,126.5,59,126.5z M66.4,127.4c-0.6,0-1.2-0.1-1.6-0.4
			s-0.8-0.6-1.1-1.1s-0.4-1.1-0.4-1.7s0.1-1.2,0.4-1.7s0.6-0.9,1.1-1.2c0.5-0.3,1-0.4,1.6-0.4c0.4,0,0.8,0.1,1.2,0.2
			c0.4,0.2,0.7,0.4,1,0.6l-0.4,0.8c-0.6-0.5-1.2-0.7-1.8-0.7c-0.6,0-1.2,0.2-1.5,0.6c-0.4,0.4-0.5,1-0.5,1.8c0,0.8,0.2,1.4,0.5,1.8
			s0.9,0.6,1.5,0.6c0.6,0,1.2-0.2,1.8-0.7l0.4,0.8c-0.3,0.3-0.6,0.5-1,0.6S66.8,127.4,66.4,127.4z M75.5,127.3h-1.4l-3.2-3v3h-1.1
			v-9.2H71v5.7l2.9-2.9h1.3l-3.1,3L75.5,127.3z"/>
		<path d="M334.1,100.6h1v9.2h-0.8l-5.5-7.4v7.4h-1v-9.2h0.8l5.5,7.4V100.6z M342.5,106.7h-4.6c0,0.7,0.2,1.3,0.6,1.7
			s0.9,0.6,1.5,0.6c0.7,0,1.4-0.3,2-0.8l0.4,0.8c-0.3,0.3-0.6,0.5-1.1,0.6c-0.4,0.2-0.9,0.2-1.3,0.2c-1,0-1.8-0.3-2.3-0.9
			s-0.9-1.4-0.9-2.4c0-0.6,0.1-1.2,0.4-1.7c0.3-0.5,0.6-0.9,1.1-1.2s1-0.4,1.6-0.4c0.8,0,1.5,0.3,2,0.8s0.7,1.3,0.7,2.3L342.5,106.7
			z M339.8,104.1c-0.6,0-1,0.2-1.3,0.5s-0.5,0.8-0.6,1.5h3.7c0-0.6-0.2-1.1-0.5-1.5S340.4,104.1,339.8,104.1L339.8,104.1z
			 M347.1,106.5l2.6,3.3h-1.3l-2-2.5l-2,2.5h-1.3l2.6-3.3l-2.5-3.1h1.3l1.8,2.3l1.8-2.3h1.3L347.1,106.5z M353.5,109
			c0.2,0,0.4,0,0.6,0l-0.1,0.8c-0.2,0-0.4,0.1-0.6,0.1c-0.8,0-1.3-0.2-1.7-0.6c-0.4-0.4-0.6-1-0.6-1.7v-3.3h-1.2v-0.8h1.2v-1.9h1.1
			v1.9h1.8v0.8h-1.8v3.2C352.2,108.5,352.6,109,353.5,109L353.5,109z M358.7,100.6h3.6c1,0,1.7,0.2,2.2,0.7s0.8,1.1,0.8,2
			s-0.3,1.5-0.8,2s-1.3,0.7-2.2,0.7h-2.6v3.8h-1.1V100.6z M362.2,105.1c1.4,0,2.1-0.6,2.1-1.8c0-1.2-0.7-1.8-2.1-1.8h-2.5v3.6H362.2
			z M369.5,103.3c0.8,0,1.4,0.2,1.8,0.6s0.6,1,0.6,1.9v4h-1v-1.1c-0.2,0.4-0.4,0.7-0.8,0.9s-0.7,0.3-1.2,0.3c-0.4,0-0.8-0.1-1.1-0.2
			s-0.6-0.4-0.8-0.7s-0.3-0.6-0.3-1c0-0.5,0.1-0.8,0.4-1.1s0.6-0.5,1.2-0.6c0.5-0.1,1.2-0.2,2.1-0.2l0.5,0v-0.4
			c0-0.5-0.1-0.9-0.3-1.1s-0.6-0.4-1.1-0.4c-0.7,0-1.5,0.2-2.2,0.7l-0.4-0.8c0.3-0.2,0.7-0.4,1.2-0.6
			C368.6,103.3,369,103.3,369.5,103.3L369.5,103.3z M369.1,109c0.5,0,0.9-0.2,1.3-0.5s0.5-0.8,0.5-1.4v-0.4h-0.2
			c-0.8,0-1.3,0-1.7,0.1s-0.7,0.2-0.9,0.3s-0.3,0.4-0.3,0.7c0,0.3,0.1,0.6,0.4,0.8C368.4,108.9,368.7,109,369.1,109z M379.5,103.4
			v5.9c0,0.9-0.2,1.7-0.7,2.1s-1.2,0.7-2.2,0.7c-1.1,0-2-0.3-2.8-0.9l0.4-0.8c0.4,0.3,0.8,0.5,1.2,0.6s0.8,0.2,1.2,0.2
			c0.6,0,1.1-0.2,1.4-0.5s0.5-0.8,0.5-1.4v-1.1c-0.2,0.4-0.5,0.7-0.8,0.9c-0.4,0.2-0.8,0.3-1.3,0.3c-0.6,0-1-0.1-1.5-0.4
			c-0.4-0.3-0.8-0.6-1-1.1s-0.4-1-0.4-1.6s0.1-1.2,0.4-1.6s0.6-0.8,1-1.1c0.4-0.3,0.9-0.4,1.5-0.4c0.5,0,0.9,0.1,1.3,0.3
			s0.7,0.5,0.8,0.9v-1.1L379.5,103.4z M376.5,108.7c0.6,0,1.1-0.2,1.4-0.6s0.5-1,0.5-1.7c0-0.7-0.2-1.3-0.5-1.7
			c-0.3-0.4-0.8-0.6-1.4-0.6s-1.1,0.2-1.4,0.6s-0.5,1-0.5,1.7c0,0.7,0.2,1.3,0.5,1.7S375.8,108.7,376.5,108.7L376.5,108.7z
			 M386.7,106.7h-4.6c0,0.7,0.2,1.3,0.6,1.7s0.9,0.6,1.5,0.6c0.7,0,1.4-0.3,2-0.8l0.4,0.8c-0.3,0.3-0.6,0.5-1.1,0.6
			c-0.4,0.2-0.9,0.2-1.3,0.2c-1,0-1.8-0.3-2.3-0.9s-0.9-1.4-0.9-2.4c0-0.6,0.1-1.2,0.4-1.7c0.3-0.5,0.6-0.9,1.1-1.2s1-0.4,1.6-0.4
			c0.8,0,1.5,0.3,2,0.8s0.7,1.3,0.7,2.3L386.7,106.7z M384,104.1c-0.6,0-1,0.2-1.3,0.5s-0.5,0.8-0.6,1.5h3.7c0-0.6-0.2-1.1-0.5-1.5
			S384.6,104.1,384,104.1L384,104.1z M390.4,109.8c-1.1,0-1.9-0.3-2.5-0.8l0.4-0.8c0.3,0.3,0.7,0.5,1,0.6s0.7,0.2,1.2,0.2
			c0.5,0,0.8-0.1,1.1-0.2s0.4-0.4,0.4-0.7c0-0.3-0.1-0.5-0.2-0.6c-0.2-0.1-0.4-0.3-0.8-0.4l-1.1-0.2c-0.5-0.1-0.9-0.3-1.2-0.6
			s-0.4-0.7-0.4-1.1c0-0.6,0.2-1,0.7-1.4c0.4-0.3,1-0.5,1.8-0.5c0.4,0,0.9,0.1,1.3,0.2c0.4,0.1,0.7,0.3,1,0.6l-0.4,0.8
			c-0.6-0.5-1.2-0.7-1.9-0.7c-0.4,0-0.8,0.1-1,0.3c-0.2,0.2-0.4,0.4-0.4,0.7c0,0.3,0.1,0.5,0.2,0.6s0.4,0.3,0.7,0.3l1.1,0.3
			c0.6,0.1,1,0.3,1.3,0.6s0.4,0.6,0.4,1.1c0,0.6-0.2,1-0.7,1.3C391.8,109.7,391.2,109.8,390.4,109.8L390.4,109.8z M348.1,127.4
			c-1.4,0-2.6-0.4-3.4-1.2l0.4-0.8c0.5,0.4,0.9,0.7,1.4,0.8s1,0.2,1.6,0.2c0.7,0,1.3-0.1,1.7-0.4c0.4-0.3,0.6-0.7,0.6-1.2
			c0-0.3-0.1-0.5-0.3-0.7s-0.4-0.3-0.8-0.5c-0.3-0.1-0.6-0.2-1.1-0.3l-0.2,0c-0.7-0.2-1.3-0.3-1.7-0.5s-0.8-0.4-1.1-0.8
			s-0.4-0.8-0.4-1.3c0-0.5,0.1-1,0.4-1.4s0.7-0.7,1.2-0.9s1.1-0.3,1.8-0.3c0.6,0,1.2,0.1,1.8,0.3c0.5,0.2,1,0.5,1.4,0.9l-0.4,0.8
			c-0.4-0.4-0.9-0.6-1.3-0.8s-0.9-0.3-1.4-0.3c-0.7,0-1.3,0.1-1.7,0.4s-0.6,0.7-0.6,1.3c0,0.5,0.2,0.8,0.5,1
			c0.3,0.2,0.8,0.4,1.4,0.5l0.2,0.1c0.8,0.2,1.4,0.4,1.9,0.5s0.8,0.4,1.1,0.7s0.4,0.7,0.4,1.3c0,0.5-0.1,1-0.4,1.4
			c-0.3,0.4-0.7,0.7-1.2,0.9S348.8,127.4,348.1,127.4L348.1,127.4z M355.8,126.5c0.2,0,0.4,0,0.6,0l-0.1,0.8c-0.2,0-0.4,0.1-0.6,0.1
			c-0.8,0-1.3-0.2-1.7-0.6s-0.6-1-0.6-1.7v-3.3h-1.2v-0.8h1.2V119h1.1v1.9h1.8v0.8h-1.8v3.2C354.4,126,354.9,126.5,355.8,126.5z
			 M360,120.8c0.8,0,1.4,0.2,1.8,0.6s0.6,1,0.6,1.9v4h-1v-1.1c-0.2,0.4-0.4,0.7-0.8,0.9c-0.3,0.2-0.7,0.3-1.2,0.3
			c-0.4,0-0.8-0.1-1.1-0.2s-0.6-0.4-0.8-0.7s-0.3-0.6-0.3-1c0-0.5,0.1-0.8,0.4-1.1s0.6-0.5,1.2-0.6c0.5-0.1,1.2-0.2,2.1-0.2l0.5,0
			v-0.4c0-0.5-0.1-0.9-0.3-1.1s-0.6-0.4-1.1-0.4c-0.7,0-1.5,0.2-2.2,0.7l-0.4-0.8c0.3-0.2,0.7-0.4,1.2-0.6
			C359.1,120.9,359.6,120.8,360,120.8L360,120.8z M359.6,126.5c0.5,0,0.9-0.2,1.3-0.5c0.3-0.4,0.5-0.8,0.5-1.4v-0.4h-0.2
			c-0.8,0-1.3,0-1.7,0.1s-0.7,0.2-0.9,0.3s-0.3,0.4-0.3,0.7c0,0.3,0.1,0.6,0.4,0.8C358.9,126.4,359.2,126.5,359.6,126.5L359.6,126.5
			z M367,127.4c-0.6,0-1.2-0.1-1.6-0.4c-0.5-0.3-0.8-0.6-1.1-1.1s-0.4-1.1-0.4-1.7s0.1-1.2,0.4-1.7c0.3-0.5,0.6-0.9,1.1-1.2
			c0.5-0.3,1-0.4,1.6-0.4c0.4,0,0.8,0.1,1.2,0.2c0.4,0.2,0.7,0.4,1,0.6l-0.4,0.8c-0.6-0.5-1.2-0.7-1.8-0.7c-0.6,0-1.2,0.2-1.5,0.6
			c-0.4,0.4-0.5,1-0.5,1.8c0,0.8,0.2,1.4,0.5,1.8c0.4,0.4,0.9,0.6,1.5,0.6c0.6,0,1.2-0.2,1.8-0.7l0.4,0.8c-0.3,0.3-0.6,0.5-1,0.6
			C367.9,127.3,367.4,127.4,367,127.4z M376.2,127.3h-1.4l-3.2-3v3h-1.1v-9.2h1.1v5.7l2.9-2.9h1.3l-3.1,3L376.2,127.3z"/>
		<path d="M176.6,47.5c-0.9,0-1.6-0.2-2.3-0.6c-0.6-0.4-1.1-0.9-1.5-1.6s-0.5-1.5-0.5-2.5s0.2-1.8,0.5-2.5s0.8-1.2,1.5-1.6
			s1.4-0.6,2.3-0.6c0.6,0,1.2,0.1,1.7,0.3c0.5,0.2,1,0.5,1.4,0.9l-0.4,0.8c-0.4-0.4-0.9-0.6-1.3-0.8c-0.4-0.2-0.9-0.2-1.4-0.2
			c-1,0-1.8,0.3-2.3,1c-0.5,0.7-0.8,1.6-0.8,2.8c0,1.2,0.3,2.1,0.8,2.8s1.3,1,2.3,1c0.5,0,1-0.1,1.4-0.2c0.4-0.2,0.9-0.4,1.3-0.8
			l0.4,0.8c-0.4,0.4-0.8,0.7-1.4,0.9S177.3,47.5,176.6,47.5z M186.7,41.1v6.3h-1v-1.1c-0.2,0.4-0.5,0.7-0.8,0.9s-0.8,0.3-1.2,0.3
			c-0.8,0-1.3-0.2-1.7-0.6c-0.4-0.4-0.6-1-0.6-1.9v-3.9h1.1V45c0,0.6,0.1,1,0.3,1.2s0.6,0.4,1.1,0.4c0.6,0,1-0.2,1.3-0.5
			c0.3-0.4,0.5-0.8,0.5-1.4v-3.6H186.7z M192.2,41.8l-0.7,0.1c-0.6,0.1-1.1,0.3-1.4,0.6s-0.4,0.8-0.4,1.3v3.6h-1.1v-6.3h1v1.1
			c0.4-0.7,1.1-1.1,2.1-1.2l0.4,0L192.2,41.8z M196.8,41.8l-0.7,0.1c-0.6,0.1-1.1,0.3-1.4,0.6s-0.4,0.8-0.4,1.3v3.6h-1.1v-6.3h1v1.1
			c0.4-0.7,1.1-1.1,2.1-1.2l0.4,0L196.8,41.8z M203.1,44.4h-4.6c0,0.7,0.2,1.3,0.6,1.7s0.9,0.6,1.5,0.6c0.7,0,1.4-0.3,2-0.8l0.4,0.8
			c-0.3,0.3-0.6,0.5-1.1,0.6s-0.9,0.2-1.3,0.2c-1,0-1.8-0.3-2.3-0.9c-0.6-0.6-0.9-1.4-0.9-2.4c0-0.6,0.1-1.2,0.4-1.7
			s0.6-0.9,1.1-1.2s1-0.4,1.6-0.4c0.8,0,1.5,0.3,2,0.8s0.7,1.3,0.7,2.3L203.1,44.4z M200.4,41.7c-0.6,0-1,0.2-1.3,0.5
			c-0.3,0.3-0.5,0.8-0.6,1.5h3.7c0-0.6-0.2-1.1-0.5-1.5C201.4,41.9,201,41.7,200.4,41.7L200.4,41.7z M207.8,40.9
			c1.5,0,2.3,0.8,2.3,2.5v4h-1.1v-3.9c0-0.6-0.1-1-0.3-1.3s-0.6-0.4-1.1-0.4c-0.6,0-1,0.2-1.4,0.5c-0.3,0.4-0.5,0.8-0.5,1.4v3.6
			h-1.1v-6.3h1v1c0.2-0.4,0.5-0.7,0.9-0.9S207.4,40.9,207.8,40.9z M214.8,46.6c0.2,0,0.4,0,0.6,0l-0.1,0.8c-0.2,0-0.4,0.1-0.6,0.1
			c-0.8,0-1.3-0.2-1.7-0.6s-0.6-1-0.6-1.7v-3.3h-1.2v-0.8h1.2v-1.9h1.1v1.9h1.8v0.8h-1.8v3.2C213.4,46.2,213.9,46.6,214.8,46.6
			L214.8,46.6z M220,38.2h3.6c1,0,1.7,0.2,2.2,0.7s0.8,1.1,0.8,2s-0.3,1.5-0.8,2c-0.5,0.5-1.3,0.7-2.2,0.7H221v3.8H220L220,38.2z
			 M223.5,42.8c1.4,0,2.1-0.6,2.1-1.8c0-1.2-0.7-1.8-2.1-1.8H221v3.6H223.5z M230.7,40.9c0.8,0,1.4,0.2,1.8,0.6
			c0.4,0.4,0.6,1,0.6,1.9v4h-1v-1.1c-0.2,0.4-0.4,0.7-0.8,0.9s-0.7,0.3-1.2,0.3c-0.4,0-0.8-0.1-1.1-0.2c-0.3-0.2-0.6-0.4-0.8-0.7
			c-0.2-0.3-0.3-0.6-0.3-1c0-0.5,0.1-0.8,0.4-1.1c0.2-0.3,0.6-0.5,1.2-0.6c0.5-0.1,1.2-0.2,2.1-0.2l0.5,0v-0.4
			c0-0.5-0.1-0.9-0.3-1.1c-0.2-0.2-0.6-0.4-1.1-0.4c-0.7,0-1.5,0.2-2.2,0.7l-0.4-0.8c0.3-0.2,0.7-0.4,1.2-0.6
			C229.9,41,230.3,40.9,230.7,40.9L230.7,40.9z M230.3,46.7c0.5,0,0.9-0.2,1.3-0.5s0.5-0.8,0.5-1.4v-0.4h-0.2c-0.8,0-1.3,0-1.7,0.1
			c-0.4,0.1-0.7,0.2-0.9,0.3s-0.3,0.4-0.3,0.7c0,0.3,0.1,0.6,0.4,0.8S230,46.7,230.3,46.7z M240.7,41.1V47c0,0.9-0.2,1.7-0.7,2.1
			c-0.5,0.5-1.2,0.7-2.2,0.7c-1.1,0-2-0.3-2.8-0.9l0.4-0.8c0.4,0.3,0.8,0.5,1.2,0.6s0.8,0.2,1.2,0.2c0.6,0,1.1-0.2,1.4-0.5
			c0.3-0.3,0.5-0.8,0.5-1.4v-1.1c-0.2,0.4-0.5,0.7-0.8,0.9s-0.8,0.3-1.3,0.3c-0.6,0-1-0.1-1.5-0.4s-0.8-0.6-1-1.1s-0.4-1-0.4-1.6
			s0.1-1.2,0.4-1.6s0.6-0.8,1-1.1s0.9-0.4,1.5-0.4c0.5,0,0.9,0.1,1.3,0.3c0.4,0.2,0.7,0.5,0.8,0.9v-1.1L240.7,41.1z M237.7,46.3
			c0.6,0,1.1-0.2,1.4-0.6s0.5-1,0.5-1.7c0-0.7-0.2-1.3-0.5-1.7s-0.8-0.6-1.4-0.6s-1.1,0.2-1.4,0.6s-0.5,1-0.5,1.7
			c0,0.7,0.2,1.3,0.5,1.7S237.1,46.3,237.7,46.3L237.7,46.3z"/>
	</g>
	<g transform="translate(0 40.909091)">
		<path d="M245.3,0c0.8,0,1.5,0.3,2,0.8s0.7,1.3,0.7,2.3v0.4h-4.6c0,0.7,0.2,1.3,0.6,1.7c0.4,0.4,0.9,0.6,1.5,0.6
			c0.7,0,1.4-0.3,2-0.8l0.4,0.8c-0.3,0.3-0.6,0.5-1.1,0.6s-0.9,0.2-1.3,0.2c-1,0-1.8-0.3-2.3-0.9c-0.6-0.6-0.9-1.4-0.9-2.4
			c0-0.6,0.1-1.2,0.4-1.7s0.6-0.9,1.1-1.2S244.7,0,245.3,0L245.3,0z M245.3,0.8c-0.6,0-1,0.2-1.3,0.5s-0.5,0.8-0.6,1.5h3.7
			c0-0.6-0.2-1.1-0.5-1.5C246.3,1,245.8,0.8,245.3,0.8L245.3,0.8z"/>
		<g>
			<path class="st1" d="M18.7,21.9h82.1l18,24.2H0L18.7,21.9z"/>
			<path class="st1" d="M18.7,12.6h82.1l18,24.2H0L18.7,12.6z"/>
			<path class="st1" d="M18.7,3.2h82.1l18,24.2H0L18.7,3.2z"/>
		</g>
	</g>
	<g transform="translate(300.649351 44.155844)">
		<path class="st2" d="M18.6,18.6h82l18,24.2H0L18.6,18.6z"/>
		<path class="st2" d="M18.6,9.3h82l18,24.2H0L18.6,9.3z"/>
		<path class="st2" d="M18.6,0h82l18,24.2H0L18.6,0z"/>
	</g>
	<path class="st3" d="M168.6,0.5h82l18,24.2H150L168.6,0.5z"/>
</g>
</svg>
